<svg id="Layer_1" data-name="Layer 1" xmlns="http://www.w3.org/2000/svg" viewBox="0 0 207.68 99.12"><defs><style>.cls-1{fill:#fff;}.cls-2{fill:#d1d3d4;}.cls-3{fill:#cd2027;}.cls-4{fill:#231f20;}.cls-5{fill:#ed1c24;}</style></defs><title>smart logo</title><rect class="cls-1" x="11.05" y="13.51" width="34.17" height="72.09"/><path class="cls-2" d="M275.12,65.12h-7c-11.12,7.71-18.81,18.46-8.19,31.51,1.12,1.37,4,4.71,5.4,6.25h0a80.14,80.14,0,0,1,6.56,8.47c1.13,1.88,6.8,12.15-9.62,25.86h7c11.12-7.71,18.81-18.46,8.19-31.51-1.11-1.37-4-4.71-5.39-6.25h0A80.25,80.25,0,0,1,265.49,91C264.37,89.1,258.69,78.83,275.12,65.12Z" transform="translate(-239.95 -51.61)"/><path class="cls-2" d="M288.34,65.12h-10c-7.74,6-10.91,11.11-12.07,14.93a12.07,12.07,0,0,0,.95,9.9,78.8,78.8,0,0,0,6.34,8.17l1.51,1.72h0c2,2.25,3.29,3.79,3.94,4.59,5.07,6.24,6.66,12.54,4.72,18.74-1.68,5.37-5.91,10.06-11.08,14h15.71a2.17,2.17,0,0,0,2.16-2.16V67.28A2.17,2.17,0,0,0,288.34,65.12Z" transform="translate(-239.95 -51.61)"/><path class="cls-2" d="M249,137.21h10c7.74-6,10.9-11.11,12.07-14.93a12.06,12.06,0,0,0-.95-9.9,78.6,78.6,0,0,0-6.34-8.17l-1.72-2h0c-1.85-2.11-3.1-3.57-3.73-4.35-5.07-6.24-6.66-12.54-4.72-18.74,1.68-5.37,5.91-10.06,11.08-14H249a2.17,2.17,0,0,0-2.16,2.16v67.77A2.17,2.17,0,0,0,249,137.21Z" transform="translate(-239.95 -51.61)"/><path class="cls-3" d="M277.44,105.7c-1.11-1.37-4-4.71-5.39-6.25h0A80.25,80.25,0,0,1,265.49,91c-1.47-2.46-10.74-19.27,31.89-39.37,0,0-60.05,17.3-37.49,45,1.12,1.37,4,4.71,5.4,6.25h0a80.14,80.14,0,0,1,6.56,8.47c1.47,2.46,10.74,19.27-31.89,39.37C239.95,150.73,300,133.43,277.44,105.7Z" transform="translate(-239.95 -51.61)"/><path class="cls-4" d="M407.35,86v31h-3.93v-5.32a17.08,17.08,0,0,1-5.62,4.58,15.7,15.7,0,0,1-18-3.23,16,16,0,0,1-4.65-11.6,15.69,15.69,0,0,1,4.7-11.44,15.31,15.31,0,0,1,11.3-4.75A14.62,14.62,0,0,1,398,86.8a15.71,15.71,0,0,1,5.42,4.87V86Zm-15.92,3a12,12,0,0,0-10.62,6.23,12.55,12.55,0,0,0,0,12.51,12.22,12.22,0,0,0,4.51,4.65,11.77,11.77,0,0,0,6.07,1.66,12.44,12.44,0,0,0,6.2-1.65A11.53,11.53,0,0,0,402.1,108a12.74,12.74,0,0,0,1.58-6.34,12.32,12.32,0,0,0-3.54-9A11.73,11.73,0,0,0,391.43,89Z" transform="translate(-239.95 -51.61)"/><path class="cls-4" d="M414.81,86h4.07V90.5a14.28,14.28,0,0,1,3.84-4,7.58,7.58,0,0,1,4.21-1.32,7.28,7.28,0,0,1,3.53,1.05l-2.08,3.36a5.55,5.55,0,0,0-2.11-.54,5.76,5.76,0,0,0-3.84,1.64,10.35,10.35,0,0,0-2.82,5.08q-.74,2.65-.74,10.7v10.47h-4.07Z" transform="translate(-239.95 -51.61)"/><path class="cls-4" d="M437.32,74.47h4V86h6.32v3.44h-6.32v27.52h-4V89.41h-5.44V86h5.44Z" transform="translate(-239.95 -51.61)"/><path class="cls-4" d="M366.91,91.32a9.66,9.66,0,0,0-3.65-4.53,10,10,0,0,0-5.66-1.62,11.76,11.76,0,0,0-6.42,1.89,14.69,14.69,0,0,0-5,5.54A12.59,12.59,0,0,0,344,88.4a9.19,9.19,0,0,0-3.3-2.35,10.58,10.58,0,0,0-4.27-.88,11.91,11.91,0,0,0-5.22,1.22l-.21.1-.37.2C325,89.57,322,95,321.82,98.4l0,0v18.49h4V103.81q0-5.81,1.15-8.62a9.85,9.85,0,0,1,3.56-4.48A8.91,8.91,0,0,1,335.66,89a7,7,0,0,1,4.13,1.21,6.37,6.37,0,0,1,2.43,3.22q.7,2,.7,7.61v15.85h4V104.81q0-6.66,1.11-9.51a9.82,9.82,0,0,1,3.5-4.55A8.92,8.92,0,0,1,356.8,89a7.25,7.25,0,0,1,4.1,1.14,6.16,6.16,0,0,1,2.43,3A22.1,22.1,0,0,1,364,100v16.91h4.07V100Q368.11,94.22,366.91,91.32Z" transform="translate(-239.95 -51.61)"/><rect class="cls-4" x="60.7" y="47.48" width="11" height="3.93"/><rect class="cls-5" x="81.85" y="70.8" width="119.51" height="1"/></svg>